<?xml version="1.0" standalone="no"?>
<!DOCTYPE svg PUBLIC "-//W3C//DTD SVG 20010904//EN"
 "http://www.w3.org/TR/2001/REC-SVG-20010904/DTD/svg10.dtd">
<svg version="1.0" xmlns="http://www.w3.org/2000/svg"
 width="1080.000000pt" height="1105.000000pt" viewBox="0 0 1080.000000 1105.000000"
 preserveAspectRatio="xMidYMid meet">

<g transform="translate(0.000000,1105.000000) scale(0.100000,-0.100000)"
fill="#000000" stroke="none">
<path d="M0 5525 l0 -5525 5400 0 5400 0 0 5525 0 5525 -5400 0 -5400 0 0
-5525z m4375 3810 c479 -46 850 -140 1303 -331 79 -33 92 -42 88 -59 -6 -23
-392 -945 -399 -951 -2 -3 -94 31 -203 75 -445 177 -717 250 -1009 270 -327
23 -567 -27 -667 -137 -46 -51 -63 -101 -62 -185 1 -54 7 -80 33 -132 75 -151
257 -256 931 -534 613 -254 879 -407 1089 -626 186 -195 293 -418 332 -695 20
-137 15 -414 -10 -554 -129 -729 -701 -1146 -1681 -1225 -334 -27 -724 -22
-1045 14 -308 34 -614 111 -930 234 l-50 19 -3 556 c-1 306 1 556 5 556 3 0
65 -25 136 -56 287 -123 740 -255 1053 -307 571 -96 1000 -34 1144 165 71 97
81 261 23 378 -18 36 -49 82 -70 102 -110 106 -412 268 -868 466 -469 203
-634 286 -830 417 -284 190 -438 380 -530 658 -92 280 -99 670 -15 930 60 187
142 319 285 462 281 281 692 440 1285 494 146 14 506 12 665 -4z m3126 -163
c118 -50 232 -160 281 -270 48 -108 48 -85 48 -1578 l0 -1401 56 -44 c31 -24
85 -80 120 -124 428 -531 161 -1308 -503 -1466 -108 -26 -283 -28 -390 -5
-319 68 -573 296 -681 608 -33 96 -36 114 -40 250 -4 128 -1 161 18 244 41
178 170 387 304 493 l56 44 2 1436 3 1436 22 57 c64 168 176 277 343 336 56
19 81 22 175 19 97 -3 119 -7 186 -35z m989 -862 c11 -11 20 -27 20 -35 0 -8
-9 -24 -20 -35 -19 -19 -33 -20 -207 -20 -210 0 -236 6 -241 55 -6 51 11 55
230 55 185 0 199 -1 218 -20z m-154 -184 c18 -25 18 -41 -2 -60 -12 -13 -40
-16 -143 -16 -134 0 -151 5 -151 46 0 45 34 55 163 52 104 -3 120 -5 133 -22z
m0 -178 c23 -23 11 -66 -22 -78 -37 -14 -214 -12 -244 3 -28 14 -38 50 -20 72
16 19 38 22 162 21 86 -1 111 -4 124 -18z m152 -170 c22 -29 23 -57 3 -77 -20
-20 -33 -21 -208 -21 -206 0 -236 7 -241 51 -6 55 10 59 232 59 151 0 206 -3
214 -12z m-152 -193 c18 -24 18 -36 0 -60 -12 -17 -30 -20 -130 -23 -95 -3
-121 -1 -141 12 -27 18 -33 57 -12 74 15 13 93 20 195 18 60 -1 77 -5 88 -21z
m-28 -166 c41 -14 51 -45 23 -72 -18 -19 -33 -21 -139 -21 -128 -1 -152 7
-152 50 0 41 34 54 141 54 53 0 110 -5 127 -11z m174 -181 c28 -22 31 -55 9
-77 -20 -20 -33 -21 -217 -21 -115 0 -203 4 -215 10 -23 13 -26 62 -3 84 13
14 47 16 213 16 143 0 202 -3 213 -12z m-152 -198 c24 -24 25 -43 4 -64 -12
-13 -40 -16 -143 -16 -136 0 -151 5 -151 48 0 43 25 51 153 52 104 0 119 -2
137 -20z m-2 -176 c26 -18 28 -46 6 -68 -12 -13 -40 -16 -143 -16 -85 0 -131
4 -139 12 -18 18 -15 65 6 77 9 6 69 11 132 11 89 0 121 -4 138 -16z m163
-185 c20 -20 19 -51 -3 -74 -5 -6 -91 -11 -204 -13 -215 -4 -244 3 -244 53 0
51 15 55 231 55 187 0 200 -1 220 -21z m-160 -178 c20 -16 22 -23 14 -47 l-10
-29 -134 -3 c-90 -2 -138 1 -147 9 -19 15 -18 48 3 71 14 15 32 18 133 18 101
0 121 -3 141 -19z m-23 -172 c40 -14 51 -45 24 -72 -18 -18 -32 -20 -143 -18
-129 2 -149 8 -149 47 0 45 23 54 134 54 57 0 117 -5 134 -11z m182 -189 c24
-24 25 -39 6 -66 -13 -17 -30 -19 -211 -22 -166 -3 -200 -1 -221 13 -29 19
-33 69 -6 84 10 6 99 11 215 11 184 0 198 -1 217 -20z m-4019 -3420 c170 -481
309 -878 309 -883 0 -4 -90 -6 -201 -5 l-201 3 -63 205 -62 205 -319 0 -319 0
-62 -204 c-34 -112 -64 -205 -66 -207 -2 -3 -94 -3 -203 -2 l-200 3 310 883
311 882 229 -2 229 -3 308 -875z m-2001 859 c116 -14 222 -51 300 -104 98 -67
154 -148 185 -270 20 -78 20 -262 0 -339 -40 -153 -133 -266 -275 -334 -110
-53 -210 -73 -397 -79 l-153 -6 0 -308 0 -309 -185 0 -185 0 0 880 0 880 313
0 c172 0 351 -5 397 -11z m3255 -4 c284 -43 430 -156 481 -372 22 -94 15 -238
-15 -316 -35 -89 -104 -173 -192 -233 -42 -28 -82 -53 -89 -56 -9 -3 72 -132
243 -386 l257 -382 -208 0 -208 0 -209 335 -208 335 -99 0 -98 0 0 -335 0
-335 -190 0 -190 0 0 880 0 880 313 0 c226 0 339 -4 412 -15z m2063 -142 l-3
-158 -237 -3 -238 -2 0 -720 0 -720 -190 0 -190 0 0 720 0 720 -235 0 -235 0
0 160 0 160 665 0 666 0 -3 -157z m1392 34 l0 -122 -419 -603 -420 -602 430 0
429 0 0 -155 0 -155 -655 0 -655 0 0 120 0 119 420 603 421 603 -411 3 -410 2
0 155 0 155 635 0 635 0 0 -123z"/>
<path d="M7030 6816 l0 -1063 -60 -37 c-125 -77 -228 -210 -273 -351 -33 -106
-31 -282 5 -383 70 -196 211 -336 402 -399 69 -22 98 -27 196 -27 98 0 127 4
195 27 303 101 483 407 421 717 -36 180 -146 335 -301 426 l-45 26 0 1064 0
1064 -270 0 -270 0 0 -1064z"/>
<path d="M3921 3264 c-13 -53 -195 -658 -206 -686 -7 -17 8 -18 219 -18 124 0
226 2 226 5 0 3 -40 135 -89 293 -50 158 -101 325 -114 371 l-24 83 -12 -48z"/>
<path d="M2130 3020 l0 -263 118 6 c188 9 269 45 316 138 21 43 26 67 26 130
0 65 -4 85 -28 130 -23 45 -37 59 -86 83 -54 28 -66 30 -202 34 l-144 5 0
-263z"/>
<path d="M5380 3046 l0 -236 99 0 c237 0 345 63 358 208 8 85 -10 144 -58 186
-52 48 -121 66 -271 73 l-128 6 0 -237z"/>
</g>
</svg>
