<svg xmlns="http://www.w3.org/2000/svg" width="1080" height="1088" viewBox="0 0 1080 1088" version="1.1"><path d="M 382.164 169.079 C 290.885 173.404, 230.636 208.448, 213.645 267.100 C 209.834 280.254, 208.599 290.220, 208.638 307.500 C 208.711 340.035, 215.087 364.767, 228.681 385.242 C 234.933 394.658, 249.376 409.638, 259.500 417.207 C 275.494 429.164, 300.879 442.900, 333 456.978 C 374.176 475.026, 386.552 480.697, 401.500 488.373 C 436.031 506.104, 446.509 515.978, 448.858 533 C 453.231 564.678, 428.363 581, 375.727 581 C 344.272 581, 309.119 574.735, 265.500 561.357 C 251.028 556.918, 221.431 545.774, 213.790 541.887 C 211.749 540.849, 209.837 540, 209.540 540 C 209.243 540, 209 564.927, 209 595.394 L 209 650.787 215.750 653.517 C 242.331 664.268, 278.391 673.270, 307.500 676.423 C 353.925 681.452, 408.324 680.272, 446 673.420 C 518.575 660.222, 563.319 623.931, 577.398 566.846 C 580.884 552.711, 582.001 542.303, 581.994 524.026 C 581.980 486.351, 573.321 460.549, 552.287 435.504 C 533.209 412.789, 502.133 394.422, 437.500 367.662 C 384.037 345.526, 365.842 336.336, 354.349 325.665 C 345.526 317.474, 342.495 311.027, 342.517 300.500 C 342.537 291.478, 344.384 286.795, 350.144 281.164 C 366.687 264.990, 421.208 263.945, 469 278.887 C 484.908 283.860, 503.219 290.507, 521.768 298.042 C 529.795 301.303, 536.465 303.865, 536.590 303.735 C 537.882 302.400, 576.782 207.402, 576.236 206.915 C 574.435 205.307, 546.272 194.303, 531.350 189.377 C 493.929 177.023, 461.007 170.940, 421 168.987 C 410.275 168.464, 400.825 168.096, 400 168.170 C 399.175 168.244, 391.149 168.653, 382.164 169.079 M 719.500 183.170 C 712.277 184.538, 701.077 190.226, 695.195 195.515 C 688.583 201.459, 682.589 210.521, 679.759 218.850 L 677.500 225.500 677.226 368.500 L 676.952 511.500 673.459 513.890 C 668.059 517.586, 658.143 528.672, 652.804 536.982 C 642.589 552.881, 638.444 568.976, 639.296 589.419 C 639.954 605.199, 641.464 611.135, 648.471 625.500 C 660.780 650.734, 681.582 667.282, 709.500 674.047 C 719.197 676.397, 738.272 676.657, 748 674.572 C 791.016 665.351, 821 629.064, 821 586.226 C 821 570.381, 818.148 558.369, 810.973 544 C 805.117 532.272, 794.180 519.028, 785.276 512.883 L 783.053 511.349 782.745 368.924 C 782.466 239.611, 782.285 226.006, 780.778 221.131 C 777.893 211.800, 773.703 204.738, 767 197.910 C 754.513 185.190, 737.204 179.819, 719.500 183.170 M 805.200 272.200 C 803.584 273.816, 803.681 277.490, 805.377 278.898 C 806.338 279.696, 813.204 279.959, 828.127 279.770 L 849.500 279.500 849.822 276.690 C 850.452 271.198, 849.660 271, 827.078 271 C 812.328 271, 806.056 271.344, 805.200 272.200 M 805.750 290.080 C 803.741 291.250, 803.432 295.032, 805.200 296.800 C 806.007 297.607, 810.543 298, 819.045 298 C 830.365 298, 831.877 297.793, 833.477 296.026 C 835.150 294.177, 835.158 293.891, 833.609 291.526 C 831.986 289.050, 831.714 289.001, 819.727 289.030 C 813.002 289.047, 806.712 289.519, 805.750 290.080 M 805.750 308.080 C 803.741 309.250, 803.432 313.032, 805.200 314.800 C 806.008 315.608, 810.562 316, 819.129 316 C 829.367 316, 832.165 315.693, 833.429 314.429 C 835.381 312.476, 835.382 311.991, 833.443 309.223 C 831.977 307.129, 831.177 307.002, 819.693 307.030 C 812.987 307.047, 806.712 307.519, 805.750 308.080 M 703 421.474 L 703 527.949 700.208 529.392 C 694.200 532.499, 684.753 540.473, 680.441 546.077 C 671.796 557.311, 667 570.854, 667 584.026 C 667 595.389, 668.634 602.480, 673.652 612.888 C 686.458 639.448, 716.649 653.379, 745.444 646.014 C 766.953 640.513, 783.132 625.107, 790.616 603 C 793.427 594.696, 793.255 575.882, 790.282 566.500 C 785.806 552.373, 775.585 539.187, 763.170 531.524 L 757 527.716 757 421.358 L 757 315 730 315 L 703 315 703 421.474 M 805.062 326.426 C 803.222 328.642, 804.194 332.296, 807 333.710 C 810.077 335.261, 843.549 335.502, 847.495 334.002 C 849.779 333.134, 850.081 332.515, 849.810 329.252 L 849.500 325.500 827.888 325.231 C 809.899 325.007, 806.073 325.207, 805.062 326.426 M 805.750 344.080 C 803.741 345.250, 803.432 349.032, 805.200 350.800 C 806.008 351.608, 810.562 352, 819.129 352 C 829.367 352, 832.165 351.693, 833.429 350.429 C 835.381 348.476, 835.382 347.991, 833.443 345.223 C 831.977 343.129, 831.177 343.002, 819.693 343.030 C 812.987 343.047, 806.712 343.519, 805.750 344.080 M 805.750 362.064 C 803.741 363.253, 803.432 367.032, 805.200 368.800 C 806.008 369.608, 810.565 370, 819.143 370 C 831.145 370, 831.976 369.872, 833.430 367.796 C 834.746 365.918, 834.773 365.290, 833.617 363.546 C 832.387 361.691, 831.102 361.478, 819.880 361.265 C 812.689 361.128, 806.767 361.463, 805.750 362.064 M 805.200 380.200 C 803.291 382.109, 803.805 385.750, 806.223 387.443 C 808.037 388.714, 811.792 389, 826.657 389 C 847.210 389, 850 388.429, 850 384.225 C 850 382.671, 849.460 380.860, 848.800 380.200 C 847.103 378.503, 806.897 378.503, 805.200 380.200 M 805.200 399.200 C 803.363 401.037, 803.772 404.808, 805.934 405.965 C 806.998 406.534, 813.228 407, 819.779 407 C 830.369 407, 831.888 406.781, 833.477 405.026 C 835.150 403.177, 835.158 402.891, 833.609 400.526 C 831.982 398.043, 831.737 398, 819.177 398 C 810.573 398, 806.008 398.392, 805.200 399.200 M 805.200 417.200 C 803.363 419.037, 803.772 422.808, 805.934 423.965 C 806.998 424.534, 813.228 425, 819.779 425 C 830.048 425, 831.918 424.748, 833.345 423.171 C 835.411 420.888, 835.431 419.574, 833.429 417.571 C 832.165 416.307, 829.367 416, 819.129 416 C 810.562 416, 806.008 416.392, 805.200 417.200 M 805.219 435.181 C 803.660 436.740, 803.650 440.250, 805.200 441.800 C 806.609 443.209, 846.645 443.511, 848.824 442.130 C 849.621 441.625, 850.019 439.937, 849.824 437.895 L 849.500 434.500 827.969 434.231 C 812.063 434.032, 806.119 434.281, 805.219 435.181 M 805.200 453.200 C 803.363 455.037, 803.772 458.808, 805.934 459.965 C 806.998 460.534, 813.266 461, 819.863 461 C 829.433 461, 832.175 460.682, 833.429 459.429 C 835.381 457.476, 835.382 456.991, 833.443 454.223 C 831.973 452.124, 831.178 452, 819.143 452 C 810.565 452, 806.008 452.392, 805.200 453.200 M 805.200 471.200 C 803.343 473.057, 803.781 476.812, 805.992 477.996 C 807.181 478.632, 812.879 478.948, 820.122 478.781 C 831.072 478.528, 832.393 478.300, 833.617 476.454 C 834.773 474.710, 834.745 474.082, 833.430 472.204 C 831.976 470.128, 831.145 470, 819.143 470 C 810.565 470, 806.008 470.392, 805.200 471.200 M 805.200 489.200 C 804.540 489.860, 804 491.345, 804 492.500 C 804 496.722, 805.399 497, 826.618 497 C 837.738 497, 847.548 496.727, 848.418 496.393 C 850.287 495.676, 850.538 490.938, 848.800 489.200 C 847.103 487.503, 806.897 487.503, 805.200 489.200 M 176 832 L 176 920 194.500 920 L 213 920 213 889 L 213 858 222.750 857.992 C 250.912 857.968, 269.443 852.345, 282.091 839.983 C 292.269 830.037, 296.963 817.105, 296.968 799 C 296.974 776.307, 288.167 760.558, 270.724 752.071 C 257.467 745.621, 244.077 744.021, 203.250 744.009 L 176 744 176 832 M 339.681 831.318 C 322.806 879.363, 309 918.971, 309 919.336 C 309 919.701, 318 920, 329 920 C 340 920, 349 919.831, 349 919.624 C 349 918.258, 361.221 879.379, 361.848 878.752 C 362.277 878.323, 376.752 878.090, 394.014 878.235 L 425.399 878.500 428.279 888 C 429.862 893.225, 432.723 902.563, 434.635 908.750 L 438.111 920 458.056 920 C 469.025 920, 477.975 919.663, 477.945 919.250 C 477.915 918.837, 464.043 879.350, 447.120 831.500 L 416.349 744.500 393.355 744.232 L 370.362 743.964 339.681 831.318 M 501 832 L 501 920 519.500 920 L 538 920 538 886.500 L 538 853 547.898 853 L 557.796 853 578.626 886.500 L 599.457 920 620.166 920 L 640.875 920 628.100 901.250 C 598.893 858.384, 589.478 843.690, 590.909 843.205 C 591.684 842.942, 595.695 840.426, 599.824 837.614 C 613.805 828.089, 620.842 815.840, 621.720 799.500 C 622.598 783.176, 617.819 769.751, 607.843 760.516 C 593.731 747.450, 577.006 744.047, 526.750 744.016 L 501 744 501 832 M 646 759.993 L 646 776 670 776 L 694 776 694 848 L 694 920 712.500 920 L 731 920 731 848.018 L 731 776.036 754.750 775.768 L 778.500 775.500 778.500 760 L 778.500 744.500 712.250 744.243 L 646 743.986 646 759.993 M 792 759.492 L 792 775 832.500 775 C 854.775 775, 873 775.246, 873 775.547 C 873 775.848, 854.100 803.180, 831 836.285 L 789 896.475 789 908.237 L 789 920 854.500 920 L 920 920 920 904.511 L 920 889.021 877.215 888.761 L 834.430 888.500 876.216 828.500 L 918.002 768.500 917.751 756.500 L 917.500 744.500 854.750 744.242 L 792 743.985 792 759.492 M 390.575 781.566 C 388.399 789.277, 374.417 835.760, 371.418 845.250 C 370.903 846.881, 372.396 847, 393.433 847 C 405.845 847, 416 846.713, 416 846.363 C 416 846.012, 411.014 829.475, 404.919 809.613 C 398.824 789.751, 393.734 773.080, 393.608 772.566 C 393.481 772.052, 392.116 776.102, 390.575 781.566 M 213 801.007 L 213 827.236 225.750 826.746 C 244.298 826.033, 252.196 822.424, 257.021 812.456 C 260.409 805.458, 260.129 794.757, 256.361 787.222 C 253.866 782.233, 252.743 781.117, 247.589 778.510 C 241.995 775.679, 240.911 775.499, 227.339 775.148 L 213 774.778 213 801.007 M 538 798.613 L 538 822.227 551.750 821.814 C 566.418 821.373, 572.378 819.750, 577.869 814.701 C 584.053 809.017, 586.003 795.770, 581.904 787.302 C 578 779.236, 566.362 775.051, 547.750 775.017 L 538 775 538 798.613" stroke="none" fill="#ffffff" fill-rule="evenodd"/><path d="M 703 421.474 L 703 527.949 700.208 529.392 C 694.200 532.499, 684.753 540.473, 680.441 546.077 C 671.796 557.311, 667 570.854, 667 584.026 C 667 595.389, 668.634 602.480, 673.652 612.888 C 686.458 639.448, 716.649 653.379, 745.444 646.014 C 766.953 640.513, 783.132 625.107, 790.616 603 C 793.427 594.696, 793.255 575.882, 790.282 566.500 C 785.806 552.373, 775.585 539.187, 763.170 531.524 L 757 527.716 757 421.358 L 757 315 730 315 L 703 315 703 421.474" stroke="none" fill="#ed1c24" fill-rule="evenodd"/><path d="M 0 544.001 L 0 1088.002 540.250 1087.751 L 1080.500 1087.500 1080.751 543.750 L 1081.002 -0 540.501 -0 L 0 0 0 544.001 M 0.496 544.500 C 0.496 843.700, 0.610 965.951, 0.750 816.168 C 0.889 666.385, 0.889 421.585, 0.750 272.168 C 0.610 122.751, 0.496 245.300, 0.496 544.500 M 382.164 169.079 C 290.885 173.404, 230.636 208.448, 213.645 267.100 C 209.834 280.254, 208.599 290.220, 208.638 307.500 C 208.711 340.035, 215.087 364.767, 228.681 385.242 C 234.933 394.658, 249.376 409.638, 259.500 417.207 C 275.494 429.164, 300.879 442.900, 333 456.978 C 374.176 475.026, 386.552 480.697, 401.500 488.373 C 436.031 506.104, 446.509 515.978, 448.858 533 C 453.231 564.678, 428.363 581, 375.727 581 C 344.272 581, 309.119 574.735, 265.500 561.357 C 251.028 556.918, 221.431 545.774, 213.790 541.887 C 211.749 540.849, 209.837 540, 209.540 540 C 209.243 540, 209 564.927, 209 595.394 L 209 650.787 215.750 653.517 C 242.331 664.268, 278.391 673.270, 307.500 676.423 C 353.925 681.452, 408.324 680.272, 446 673.420 C 518.575 660.222, 563.319 623.931, 577.398 566.846 C 580.884 552.711, 582.001 542.303, 581.994 524.026 C 581.980 486.351, 573.321 460.549, 552.287 435.504 C 533.209 412.789, 502.133 394.422, 437.500 367.662 C 384.037 345.526, 365.842 336.336, 354.349 325.665 C 345.526 317.474, 342.495 311.027, 342.517 300.500 C 342.537 291.478, 344.384 286.795, 350.144 281.164 C 366.687 264.990, 421.208 263.945, 469 278.887 C 484.908 283.860, 503.219 290.507, 521.768 298.042 C 529.795 301.303, 536.465 303.865, 536.590 303.735 C 537.882 302.400, 576.782 207.402, 576.236 206.915 C 574.435 205.307, 546.272 194.303, 531.350 189.377 C 493.929 177.023, 461.007 170.940, 421 168.987 C 410.275 168.464, 400.825 168.096, 400 168.170 C 399.175 168.244, 391.149 168.653, 382.164 169.079 M 719.500 183.170 C 712.277 184.538, 701.077 190.226, 695.195 195.515 C 688.583 201.459, 682.589 210.521, 679.759 218.850 L 677.500 225.500 677.226 368.500 L 676.952 511.500 673.459 513.890 C 668.059 517.586, 658.143 528.672, 652.804 536.982 C 642.589 552.881, 638.444 568.976, 639.296 589.419 C 639.954 605.199, 641.464 611.135, 648.471 625.500 C 660.780 650.734, 681.582 667.282, 709.500 674.047 C 719.197 676.397, 738.272 676.657, 748 674.572 C 791.016 665.351, 821 629.064, 821 586.226 C 821 570.381, 818.148 558.369, 810.973 544 C 805.117 532.272, 794.180 519.028, 785.276 512.883 L 783.053 511.349 782.745 368.924 C 782.466 239.611, 782.285 226.006, 780.778 221.131 C 777.893 211.800, 773.703 204.738, 767 197.910 C 754.513 185.190, 737.204 179.819, 719.500 183.170 M 805.200 272.200 C 803.584 273.816, 803.681 277.490, 805.377 278.898 C 806.338 279.696, 813.204 279.959, 828.127 279.770 L 849.500 279.500 849.822 276.690 C 850.452 271.198, 849.660 271, 827.078 271 C 812.328 271, 806.056 271.344, 805.200 272.200 M 805.750 290.080 C 803.741 291.250, 803.432 295.032, 805.200 296.800 C 806.007 297.607, 810.543 298, 819.045 298 C 830.365 298, 831.877 297.793, 833.477 296.026 C 835.150 294.177, 835.158 293.891, 833.609 291.526 C 831.986 289.050, 831.714 289.001, 819.727 289.030 C 813.002 289.047, 806.712 289.519, 805.750 290.080 M 805.750 308.080 C 803.741 309.250, 803.432 313.032, 805.200 314.800 C 806.008 315.608, 810.562 316, 819.129 316 C 829.367 316, 832.165 315.693, 833.429 314.429 C 835.381 312.476, 835.382 311.991, 833.443 309.223 C 831.977 307.129, 831.177 307.002, 819.693 307.030 C 812.987 307.047, 806.712 307.519, 805.750 308.080 M 805.062 326.426 C 803.222 328.642, 804.194 332.296, 807 333.710 C 810.077 335.261, 843.549 335.502, 847.495 334.002 C 849.779 333.134, 850.081 332.515, 849.810 329.252 L 849.500 325.500 827.888 325.231 C 809.899 325.007, 806.073 325.207, 805.062 326.426 M 805.750 344.080 C 803.741 345.250, 803.432 349.032, 805.200 350.800 C 806.008 351.608, 810.562 352, 819.129 352 C 829.367 352, 832.165 351.693, 833.429 350.429 C 835.381 348.476, 835.382 347.991, 833.443 345.223 C 831.977 343.129, 831.177 343.002, 819.693 343.030 C 812.987 343.047, 806.712 343.519, 805.750 344.080 M 805.750 362.064 C 803.741 363.253, 803.432 367.032, 805.200 368.800 C 806.008 369.608, 810.565 370, 819.143 370 C 831.145 370, 831.976 369.872, 833.430 367.796 C 834.746 365.918, 834.773 365.290, 833.617 363.546 C 832.387 361.691, 831.102 361.478, 819.880 361.265 C 812.689 361.128, 806.767 361.463, 805.750 362.064 M 805.200 380.200 C 803.291 382.109, 803.805 385.750, 806.223 387.443 C 808.037 388.714, 811.792 389, 826.657 389 C 847.210 389, 850 388.429, 850 384.225 C 850 382.671, 849.460 380.860, 848.800 380.200 C 847.103 378.503, 806.897 378.503, 805.200 380.200 M 805.200 399.200 C 803.363 401.037, 803.772 404.808, 805.934 405.965 C 806.998 406.534, 813.228 407, 819.779 407 C 830.369 407, 831.888 406.781, 833.477 405.026 C 835.150 403.177, 835.158 402.891, 833.609 400.526 C 831.982 398.043, 831.737 398, 819.177 398 C 810.573 398, 806.008 398.392, 805.200 399.200 M 805.200 417.200 C 803.363 419.037, 803.772 422.808, 805.934 423.965 C 806.998 424.534, 813.228 425, 819.779 425 C 830.048 425, 831.918 424.748, 833.345 423.171 C 835.411 420.888, 835.431 419.574, 833.429 417.571 C 832.165 416.307, 829.367 416, 819.129 416 C 810.562 416, 806.008 416.392, 805.200 417.200 M 805.219 435.181 C 803.660 436.740, 803.650 440.250, 805.200 441.800 C 806.609 443.209, 846.645 443.511, 848.824 442.130 C 849.621 441.625, 850.019 439.937, 849.824 437.895 L 849.500 434.500 827.969 434.231 C 812.063 434.032, 806.119 434.281, 805.219 435.181 M 805.200 453.200 C 803.363 455.037, 803.772 458.808, 805.934 459.965 C 806.998 460.534, 813.266 461, 819.863 461 C 829.433 461, 832.175 460.682, 833.429 459.429 C 835.381 457.476, 835.382 456.991, 833.443 454.223 C 831.973 452.124, 831.178 452, 819.143 452 C 810.565 452, 806.008 452.392, 805.200 453.200 M 805.200 471.200 C 803.343 473.057, 803.781 476.812, 805.992 477.996 C 807.181 478.632, 812.879 478.948, 820.122 478.781 C 831.072 478.528, 832.393 478.300, 833.617 476.454 C 834.773 474.710, 834.745 474.082, 833.430 472.204 C 831.976 470.128, 831.145 470, 819.143 470 C 810.565 470, 806.008 470.392, 805.200 471.200 M 805.200 489.200 C 804.540 489.860, 804 491.345, 804 492.500 C 804 496.722, 805.399 497, 826.618 497 C 837.738 497, 847.548 496.727, 848.418 496.393 C 850.287 495.676, 850.538 490.938, 848.800 489.200 C 847.103 487.503, 806.897 487.503, 805.200 489.200 M 176 832 L 176 920 194.500 920 L 213 920 213 889 L 213 858 222.750 857.992 C 250.912 857.968, 269.443 852.345, 282.091 839.983 C 292.269 830.037, 296.963 817.105, 296.968 799 C 296.974 776.307, 288.167 760.558, 270.724 752.071 C 257.467 745.621, 244.077 744.021, 203.250 744.009 L 176 744 176 832 M 339.681 831.318 C 322.806 879.363, 309 918.971, 309 919.336 C 309 919.701, 318 920, 329 920 C 340 920, 349 919.831, 349 919.624 C 349 918.258, 361.221 879.379, 361.848 878.752 C 362.277 878.323, 376.752 878.090, 394.014 878.235 L 425.399 878.500 428.279 888 C 429.862 893.225, 432.723 902.563, 434.635 908.750 L 438.111 920 458.056 920 C 469.025 920, 477.975 919.663, 477.945 919.250 C 477.915 918.837, 464.043 879.350, 447.120 831.500 L 416.349 744.500 393.355 744.232 L 370.362 743.964 339.681 831.318 M 501 832 L 501 920 519.500 920 L 538 920 538 886.500 L 538 853 547.898 853 L 557.796 853 578.626 886.500 L 599.457 920 620.166 920 L 640.875 920 628.100 901.250 C 598.893 858.384, 589.478 843.690, 590.909 843.205 C 591.684 842.942, 595.695 840.426, 599.824 837.614 C 613.805 828.089, 620.842 815.840, 621.720 799.500 C 622.598 783.176, 617.819 769.751, 607.843 760.516 C 593.731 747.450, 577.006 744.047, 526.750 744.016 L 501 744 501 832 M 646 759.993 L 646 776 670 776 L 694 776 694 848 L 694 920 712.500 920 L 731 920 731 848.018 L 731 776.036 754.750 775.768 L 778.500 775.500 778.500 760 L 778.500 744.500 712.250 744.243 L 646 743.986 646 759.993 M 792 759.492 L 792 775 832.500 775 C 854.775 775, 873 775.246, 873 775.547 C 873 775.848, 854.100 803.180, 831 836.285 L 789 896.475 789 908.237 L 789 920 854.500 920 L 920 920 920 904.511 L 920 889.021 877.215 888.761 L 834.430 888.500 876.216 828.500 L 918.002 768.500 917.751 756.500 L 917.500 744.500 854.750 744.242 L 792 743.985 792 759.492 M 390.575 781.566 C 388.399 789.277, 374.417 835.760, 371.418 845.250 C 370.903 846.881, 372.396 847, 393.433 847 C 405.845 847, 416 846.713, 416 846.363 C 416 846.012, 411.014 829.475, 404.919 809.613 C 398.824 789.751, 393.734 773.080, 393.608 772.566 C 393.481 772.052, 392.116 776.102, 390.575 781.566 M 213 801.007 L 213 827.236 225.750 826.746 C 244.298 826.033, 252.196 822.424, 257.021 812.456 C 260.409 805.458, 260.129 794.757, 256.361 787.222 C 253.866 782.233, 252.743 781.117, 247.589 778.510 C 241.995 775.679, 240.911 775.499, 227.339 775.148 L 213 774.778 213 801.007 M 538 798.613 L 538 822.227 551.750 821.814 C 566.418 821.373, 572.378 819.750, 577.869 814.701 C 584.053 809.017, 586.003 795.770, 581.904 787.302 C 578 779.236, 566.362 775.051, 547.750 775.017 L 538 775 538 798.613" stroke="none" fill="#0424cc" fill-rule="evenodd"/></svg>